<svg xmlns="http://www.w3.org/2000/svg" viewBox="0 0 128 128"><g fill="#61DAFB"><circle cx="64" cy="64" r="8"/><path d="M64 25c9.8 0 19 1 26.1 2.8c8.6 2.2 14 5.5 14 8.2s-5.4 6-14 8.2C83 46 73.8 47 64 47s-19-1-26.1-2.8c-8.6-2.2-14-5.5-14-8.2s5.4-6 14-8.2C45 26 54.2 25 64 25zM64 81c9.8 0 19 1 26.1 2.8c8.6 2.2 14 5.5 14 8.2s-5.4 6-14 8.2C83 102 73.8 103 64 103s-19-1-26.1-2.8c-8.6-2.2-14-5.5-14-8.2s5.4-6 14-8.2C45 82 54.2 81 64 81zM39 33.5c4.9-8.4 10.4-15.1 15.5-19c7-5.4 12.6-6.1 15-3.9s1.9 8-3.5 15C63.1 31 56.5 37.6 49 46c-4.9 8.4-10.4 15.1-15.5 19c-7 5.4-12.6 6.1-15 3.9s-1.9-8 3.5-15c3.9-6.1 10.6-13.7 17.5-20.4zM89 33.5c-4.9-8.4-10.4-15.1-15.5-19c-7-5.4-12.6-6.1-15-3.9s-1.9 8 3.5 15C64.9 31 71.5 37.6 79 46c4.9 8.4 10.4 15.1 15.5 19c7 5.4 12.6 6.1 15 3.9s1.9-8-3.5-15C102.1 47 95.4 39.4 89 33.5z"/></g></svg>
