<svg xmlns="http://www.w3.org/2000/svg" viewBox="0 0 128 128"><path fill="#3178C6" d="M20 0h88a20 20 0 0 1 20 20v88a20 20 0 0 1-20 20H20A20 20 0 0 1 0 108V20A20 20 0 0 1 20 0z"/><path fill="#fff" d="M27 101.5h18.7V55.8H27v-9.2h46v9.2H54.3v45.7H27zm53.2.8c-5 0-9.2-1-12.5-2.9c-3.3-2-6-5-8.2-9l8.5-5c1.7 2.8 3.6 4.8 5.7 6s4.4 1.9 7.1 1.9c2.9 0 5.1-.7 6.7-2s2.3-3.1 2.3-5.2c0-2-.7-3.6-2.2-4.8s-4-2.3-7.6-3.4c-6-1.8-10.1-3.9-12.3-6.4s-3.4-5.5-3.4-9.4c0-3 0-5.3 1.4-7.6c.9-1.8 2.2-3.4 3.8-4.7a18.5 18.5 0 0 1 6.3-3.3a29.2 29.2 0 0 1 8.1-1.1c4.4 0 8.2.8 11.5 2.4s5.8 4 7.6 7.3l-8.4 5.2c-1.6-2.3-3.3-4-5.2-5s-4-1.5-6.6-1.5c-2.7 0-4.8.6-6.3 1.9s-2.2 2.9-2.2 5c0 2 .7 3.6 2.1 4.8s4 2.4 7.6 3.5c5.9 1.7 10 3.8 12.2 6.2s3.3 5.5 3.3 9.5c0 4.5-1.6 8.1-4.8 10.8s-7.7 4-13.5 4z"/></svg>
