<svg xmlns="http://www.w3.org/2000/svg" viewBox="0 0 1600 900">
  <defs>
    <linearGradient id="bg" x1="100" x2="1490" y1="74" y2="860" gradientUnits="userSpaceOnUse">
      <stop stop-color="#052e2b"/>
      <stop offset="0.52" stop-color="#115e59"/>
      <stop offset="1" stop-color="#052e16"/>
    </linearGradient>
  </defs>
  <rect width="1600" height="900" rx="64" fill="url(#bg)"/>
  <circle cx="1320" cy="180" r="180" fill="#f59e0b" opacity="0.18"/>
  <circle cx="280" cy="170" r="160" fill="#2dd4bf" opacity="0.16"/>
  <rect x="154" y="118" width="1292" height="664" rx="42" fill="rgba(8,23,24,0.8)" stroke="rgba(255,255,255,0.12)" stroke-width="8"/>
  <rect x="212" y="172" width="438" height="270" rx="30" fill="rgba(45,212,191,0.12)" stroke="rgba(153,246,228,0.25)"/>
  <rect x="684" y="172" width="702" height="112" rx="30" fill="rgba(255,255,255,0.05)"/>
  <rect x="684" y="318" width="214" height="270" rx="30" fill="rgba(255,255,255,0.05)"/>
  <rect x="928" y="318" width="214" height="270" rx="30" fill="rgba(255,255,255,0.05)"/>
  <rect x="1172" y="318" width="214" height="270" rx="30" fill="rgba(255,255,255,0.05)"/>
  <rect x="684" y="622" width="702" height="100" rx="30" fill="rgba(245,158,11,0.14)" stroke="rgba(253,224,71,0.22)"/>
  <circle cx="432" cy="286" r="84" fill="#f8fafc" opacity="0.92"/>
  <path d="M432 216c28 0 54 12 72 32-18 58-78 102-148 108 10-78 34-140 76-140Z" fill="#10b981"/>
  <rect x="738" y="656" width="254" height="28" rx="14" fill="rgba(254,243,199,0.72)"/>
  <rect x="1024" y="656" width="194" height="28" rx="14" fill="rgba(255,255,255,0.2)"/>
  <text x="214" y="784" fill="#f8fafc" font-family="ui-sans-serif, system-ui, sans-serif" font-size="72" font-weight="700">EcoStore</text>
  <text x="216" y="836" fill="#99f6e4" font-family="ui-sans-serif, system-ui, sans-serif" font-size="26" font-weight="600" letter-spacing="4">HEADLESS COMMERCE FOR CONSCIOUS BRANDS</text>
</svg>