<svg xmlns="http://www.w3.org/2000/svg" viewBox="0 0 1600 900">
  <defs>
    <linearGradient id="bg" x1="140" x2="1460" y1="70" y2="860" gradientUnits="userSpaceOnUse">
      <stop stop-color="#0f172a"/>
      <stop offset="0.45" stop-color="#0f3b7a"/>
      <stop offset="1" stop-color="#03111f"/>
    </linearGradient>
  </defs>
  <rect width="1600" height="900" rx="64" fill="url(#bg)"/>
  <circle cx="1260" cy="150" r="200" fill="#38bdf8" opacity="0.18"/>
  <rect x="178" y="118" width="1244" height="664" rx="42" fill="rgba(7,15,28,0.76)" stroke="rgba(255,255,255,0.12)" stroke-width="8"/>
  <rect x="224" y="166" width="330" height="230" rx="30" fill="rgba(56,189,248,0.12)" stroke="rgba(125,211,252,0.32)"/>
  <rect x="590" y="166" width="390" height="230" rx="30" fill="rgba(255,255,255,0.05)"/>
  <rect x="1016" y="166" width="360" height="230" rx="30" fill="rgba(255,255,255,0.05)"/>
  <rect x="224" y="430" width="538" height="302" rx="30" fill="rgba(255,255,255,0.05)"/>
  <rect x="798" y="430" width="578" height="302" rx="30" fill="rgba(56,189,248,0.14)" stroke="rgba(191,219,254,0.22)"/>
  <circle cx="388" cy="274" r="54" fill="#38bdf8" opacity="0.85"/>
  <circle cx="690" cy="280" r="24" fill="#f8fafc" opacity="0.72"/>
  <circle cx="760" cy="280" r="24" fill="#38bdf8" opacity="0.82"/>
  <circle cx="830" cy="280" r="24" fill="#14b8a6" opacity="0.74"/>
  <rect x="870" y="520" width="436" height="42" rx="21" fill="rgba(255,255,255,0.1)"/>
  <rect x="870" y="590" width="316" height="26" rx="13" fill="rgba(191,219,254,0.52)"/>
  <rect x="870" y="636" width="380" height="26" rx="13" fill="rgba(255,255,255,0.18)"/>
  <text x="224" y="784" fill="#f8fafc" font-family="ui-sans-serif, system-ui, sans-serif" font-size="72" font-weight="700">Fluent UI Kit</text>
  <text x="226" y="836" fill="#93c5fd" font-family="ui-sans-serif, system-ui, sans-serif" font-size="26" font-weight="600" letter-spacing="4">SYSTEM-DRIVEN COMPONENT LIBRARY</text>
</svg>