<svg xmlns="http://www.w3.org/2000/svg" viewBox="0 0 1600 900">
  <defs>
    <linearGradient id="bg" x1="120" x2="1460" y1="40" y2="860" gradientUnits="userSpaceOnUse">
      <stop stop-color="#1d1b4b"/>
      <stop offset="0.5" stop-color="#312e81"/>
      <stop offset="1" stop-color="#020617"/>
    </linearGradient>
    <linearGradient id="panel" x1="310" x2="1220" y1="180" y2="710" gradientUnits="userSpaceOnUse">
      <stop stop-color="#0f172a"/>
      <stop offset="1" stop-color="#111827"/>
    </linearGradient>
  </defs>
  <rect width="1600" height="900" rx="64" fill="url(#bg)"/>
  <circle cx="1260" cy="170" r="190" fill="#7c3aed" opacity="0.24"/>
  <circle cx="280" cy="730" r="220" fill="#38bdf8" opacity="0.18"/>
  <rect x="160" y="124" width="1280" height="652" rx="42" fill="url(#panel)" stroke="rgba(255,255,255,0.12)" stroke-width="8"/>
  <rect x="196" y="162" width="1208" height="56" rx="20" fill="rgba(255,255,255,0.07)"/>
  <circle cx="236" cy="190" r="8" fill="#f87171"/>
  <circle cx="266" cy="190" r="8" fill="#fbbf24"/>
  <circle cx="296" cy="190" r="8" fill="#34d399"/>
  <rect x="230" y="266" width="280" height="410" rx="28" fill="rgba(255,255,255,0.05)"/>
  <rect x="554" y="266" width="506" height="206" rx="28" fill="rgba(255,255,255,0.05)"/>
  <rect x="1096" y="266" width="262" height="206" rx="28" fill="rgba(124,58,237,0.2)" stroke="rgba(196,181,253,0.3)"/>
  <rect x="554" y="510" width="804" height="166" rx="28" fill="rgba(255,255,255,0.05)"/>
  <path d="M610 612h144l62-76 74 92 94-132 64 88h184" fill="none" stroke="#38bdf8" stroke-linecap="round" stroke-linejoin="round" stroke-width="16"/>
  <text x="236" y="734" fill="#f8fafc" font-family="ui-sans-serif, system-ui, sans-serif" font-size="72" font-weight="700">Nexus OS</text>
  <text x="238" y="786" fill="#c4b5fd" font-family="ui-sans-serif, system-ui, sans-serif" font-size="26" font-weight="600" letter-spacing="4">BROWSER DESKTOP SYSTEM</text>
</svg>